<?xml version="1.0" encoding="UTF-8"?>
<svg id="Calque_1" data-name="Calque 1" xmlns="http://www.w3.org/2000/svg" viewBox="0 0 1000 527.72">
  <defs>
    <style>
      .cls-1 {
        fill: #fff;
      }

      .cls-2 {
        fill: #1d1d1b;
      }
    </style>
  </defs>
  <path class="cls-1" d="M500,481.72c-68.09,0-134.45-12.91-197.24-38.37-64.98-26.35-123.31-65.09-173.35-115.13l-64.36-64.36,64.36-64.36c50.04-50.04,108.37-88.78,173.35-115.13,62.79-25.46,129.15-38.37,197.24-38.37s134.45,12.91,197.24,38.37c64.98,26.35,123.31,65.09,173.35,115.13l64.36,64.36-64.36,64.36c-50.04,50.04-108.37,88.78-173.35,115.13-62.79,25.46-129.15,38.37-197.24,38.37Z"/>
  <path class="cls-2" d="M500,92c62.14,0,122.68,11.78,179.95,35,59.25,24.03,112.44,59.36,158.11,105.03l31.83,31.83-31.83,31.83c-45.67,45.67-98.86,81-158.11,105.03-57.27,23.22-117.82,35-179.95,35s-122.68-11.78-179.95-35c-59.25-24.03-112.44-59.36-158.11-105.03l-31.83-31.83,31.83-31.83c45.67-45.67,98.86-81,158.11-105.03,57.27-23.22,117.82-35,179.95-35m0-92C354.1,0,208.2,55.66,96.88,166.98L0,263.86l96.88,96.88c111.32,111.32,257.22,166.98,403.12,166.98s291.8-55.66,403.12-166.98l96.88-96.88-96.88-96.88C791.8,55.66,645.9,0,500,0h0Z"/>
</svg>